<svg xmlns="http://www.w3.org/2000/svg" xmlns:xlink="http://www.w3.org/1999/xlink" width="152" height="152" viewBox="0 0 152 152"><defs><style>.a,.f{fill:#dfddee;}.b{fill:#fff;opacity:0.812;}.c{clip-path:url(#a);}.d{clip-path:url(#b);}.e{fill:#f5eded;}.e,.f,.g{stroke:#9072b2;stroke-linecap:round;stroke-linejoin:round;stroke-width:2px;}.g{fill:#bbbbcd;}.h{fill:#390075;}</style><clipPath id="a"><path class="a" d="M26.11,282.681v.01H28a.945.945,0,0,0-.94-.95h0a.945.945,0,0,0-.945.94M13.344,276.2a6.507,6.507,0,0,0-6.313,5.829A3.05,3.05,0,0,0,1,282.691H26.11v-.012a3.051,3.051,0,0,0-6.1-.135l-.005,0a6.507,6.507,0,0,0-6.5-6.349l-.162,0" transform="translate(-1.003 -276.193)"/></clipPath><clipPath id="b"><path class="a" d="M566.8,350.647v.023h4.21a2.1,2.1,0,0,0-2.095-2.116H568.9a2.1,2.1,0,0,0-2.105,2.093m-28.44-14.45a14.5,14.5,0,0,0-14.064,12.985,6.8,6.8,0,0,0-13.428,1.488H566.8v-.027a6.8,6.8,0,0,0-13.584-.3l-.011-.006a14.5,14.5,0,0,0-14.485-14.143c-.119,0-.24,0-.359,0" transform="translate(-510.867 -336.193)"/></clipPath></defs><g transform="translate(-669 -171)"><circle class="b" cx="76" cy="76" r="76" transform="translate(669 171)"/><g transform="translate(793.761 274.7)"><g class="c"><rect class="a" width="0.001" height="6.584" transform="translate(-0.001 -0.085)"/><rect class="a" width="1.038" height="6.584" transform="translate(0 -0.085)"/><rect class="a" width="1.038" height="6.584" transform="translate(1.039 -0.085)"/><rect class="a" width="1.038" height="6.584" transform="translate(2.077 -0.085)"/><rect class="a" width="1.038" height="6.584" transform="translate(3.115 -0.085)"/><rect class="a" width="1.038" height="6.584" transform="translate(4.153 -0.085)"/><rect class="a" width="1.038" height="6.584" transform="translate(5.192 -0.085)"/><rect class="a" width="1.038" height="6.584" transform="translate(6.23 -0.085)"/><rect class="a" width="1.038" height="6.584" transform="translate(7.269 -0.085)"/><rect class="a" width="1.038" height="6.584" transform="translate(8.307 -0.085)"/><rect class="a" width="1.038" height="6.584" transform="translate(9.345 -0.085)"/><rect class="a" width="1.038" height="6.584" transform="translate(10.383 -0.085)"/><rect class="a" width="1.038" height="6.584" transform="translate(11.422 -0.085)"/><rect class="a" width="1.038" height="6.584" transform="translate(12.46 -0.085)"/><rect class="a" width="1.038" height="6.584" transform="translate(13.498 -0.085)"/><rect class="a" width="1.038" height="6.584" transform="translate(14.537 -0.085)"/><rect class="a" width="1.038" height="6.584" transform="translate(15.575 -0.085)"/><rect class="a" width="1.039" height="6.584" transform="translate(16.613 -0.085)"/><rect class="a" width="1.038" height="6.584" transform="translate(17.652 -0.085)"/><rect class="a" width="1.038" height="6.584" transform="translate(18.69 -0.085)"/><rect class="a" width="1.038" height="6.584" transform="translate(19.729 -0.085)"/><rect class="a" width="1.038" height="6.584" transform="translate(20.767 -0.085)"/><rect class="a" width="1.038" height="6.584" transform="translate(21.805 -0.085)"/><rect class="a" width="1.038" height="6.584" transform="translate(22.843 -0.085)"/><rect class="a" width="1.038" height="6.584" transform="translate(23.882 -0.085)"/><rect class="a" width="1.038" height="6.584" transform="translate(24.92 -0.085)"/><rect class="a" width="1.038" height="6.584" transform="translate(25.959 -0.085)"/><rect class="a" width="0.003" height="6.584" transform="translate(26.997 -0.085)"/></g></g><g transform="translate(669 195.713)"><g class="d"><rect class="a" width="0.003" height="14.667" transform="translate(-0.003 -0.19)"/><rect class="a" width="2.312" height="14.667" transform="translate(0.001 -0.19)"/><rect class="a" width="2.313" height="14.667" transform="translate(2.313 -0.19)"/><rect class="a" width="2.313" height="14.667" transform="translate(4.626 -0.19)"/><rect class="a" width="2.313" height="14.667" transform="translate(6.939 -0.19)"/><rect class="a" width="2.313" height="14.667" transform="translate(9.253 -0.19)"/><rect class="a" width="2.313" height="14.667" transform="translate(11.566 -0.19)"/><rect class="a" width="2.313" height="14.667" transform="translate(13.879 -0.19)"/><rect class="a" width="2.313" height="14.667" transform="translate(16.192 -0.19)"/><rect class="a" width="2.313" height="14.667" transform="translate(18.505 -0.19)"/><rect class="a" width="2.313" height="14.667" transform="translate(20.819 -0.19)"/><rect class="a" width="2.313" height="14.667" transform="translate(23.132 -0.19)"/><rect class="a" width="2.312" height="14.667" transform="translate(25.445 -0.19)"/><rect class="a" width="2.313" height="14.667" transform="translate(27.757 -0.19)"/><rect class="a" width="2.313" height="14.667" transform="translate(30.071 -0.19)"/><rect class="a" width="2.313" height="14.667" transform="translate(32.384 -0.19)"/><rect class="a" width="2.313" height="14.667" transform="translate(34.698 -0.19)"/><rect class="a" width="2.313" height="14.667" transform="translate(37.01 -0.19)"/><rect class="a" width="2.313" height="14.667" transform="translate(39.324 -0.19)"/><rect class="a" width="2.313" height="14.667" transform="translate(41.637 -0.19)"/><rect class="a" width="2.313" height="14.667" transform="translate(43.95 -0.19)"/><rect class="a" width="2.313" height="14.667" transform="translate(46.263 -0.19)"/><rect class="a" width="2.313" height="14.667" transform="translate(48.577 -0.19)"/><rect class="a" width="2.312" height="14.667" transform="translate(50.89 -0.19)"/><rect class="a" width="2.313" height="14.667" transform="translate(53.203 -0.19)"/><rect class="a" width="2.313" height="14.667" transform="translate(55.516 -0.19)"/><rect class="a" width="2.313" height="14.667" transform="translate(57.829 -0.19)"/></g></g><g transform="translate(-42.12 -20)"><g transform="translate(756.383 228.313) rotate(8)"><path class="e" d="M75.229,0,0,37.269l14.374,9.268Z"/><path class="e" d="M213,0l-51.5,53.679,7.8,3.905,17.957,8.978Z" transform="translate(-137.776)"/><path class="f" d="M158.683,0,97.828,46.537l9.356,18.913V53.679Z" transform="translate(-83.454)"/><path class="g" d="M169.3,369.236l-7.8,7.865V365.33Z" transform="translate(-137.775 -311.651)"/></g><path class="h" d="M1877.789,378.808c0,.176-.376.328-.923.4a.374.374,0,0,0-.322.322c-.072.545-.222.921-.4.921s-.328-.376-.4-.921a.373.373,0,0,0-.322-.322c-.545-.072-.921-.224-.921-.4s.376-.328.921-.4a.374.374,0,0,0,.322-.322c.072-.545.224-.921.4-.921s.326.376.4.921a.374.374,0,0,0,.322.322c.547.072.923.224.923.4" transform="translate(-1053.132 -100.683)"/><path class="h" d="M713.582,1.7c0,.182-.389.339-.955.414a.386.386,0,0,0-.333.333c-.074.564-.229.952-.411.952s-.339-.389-.413-.953a.386.386,0,0,0-.333-.333c-.564-.074-.953-.231-.953-.413s.389-.339.953-.413A.386.386,0,0,0,711.47.95c.074-.564.232-.953.413-.953s.337.388.411.952a.386.386,0,0,0,.333.333c.566.074.955.231.955.414" transform="translate(39.032 248.208)"/><path class="h" d="M2006.114,497.054c0,.131-.279.244-.685.3a.277.277,0,0,0-.239.239c-.053.4-.165.684-.3.684s-.243-.279-.3-.684a.278.278,0,0,0-.239-.239c-.4-.053-.684-.166-.684-.3s.279-.243.684-.3a.277.277,0,0,0,.239-.239c.053-.4.166-.684.3-.684s.242.279.3.684a.277.277,0,0,0,.239.239c.406.053.685.166.685.3" transform="translate(-1180.581 -213.094)"/></g></g></svg>